# xmcd
#
# Track frame offsets:
# 150
# 18475
# 36237
# 49597
# 65427
# 80687
# 94029
# 126729
# 150182
# 162682
# 176317
# 198750
# 212862
#
# Disc length: 3296 seconds
#
# Revision: 1
# Processed by: cddbd v1.4PL0 Copyright (c) Steve Scherf et al.
# Submitted via: CedeCatalogueitor 2.5 http://usuarios.lycos.es/kakasboy
#
DISCID=ad0cde0d
DTITLE=Christian Dozzler and The Blues Wavw - Smile Awhile
DYEAR=1998
DGENRE=
TTITLE0=Time
TTITLE1=Backstabbers and Bad Losers
TTITLE2=Walking To New Orleans
TTITLE3=Bad Dream
TTITLE4=This Morning
TTITLE5=The Way (you Treat Me)
TTITLE6=Long Long night
TTITLE7=She Belong To Me
TTITLE8=Zydeco Party
TTITLE9=Smile Awhile
TTITLE10=It Ain´t Much
TTITLE11=Bludeco Boogie
TTITLE12=One Kind Favour
EXTD=
EXTT0=
EXTT1=
EXTT2=
EXTT3=
EXTT4=
EXTT5=
EXTT6=
EXTT7=
EXTT8=
EXTT9=
EXTT10=
EXTT11=
EXTT12=
PLAYORDER=
